<?xml version="1.0" encoding="utf-8"?>
<!-- Generator: Adobe Illustrator 22.0.1, SVG Export Plug-In . SVG Version: 6.00 Build 0)  -->
<svg version="1.1" id="Capa_1" xmlns="http://www.w3.org/2000/svg" xmlns:xlink="http://www.w3.org/1999/xlink" x="0px" y="0px"
	 viewBox="0 0 474 150" style="enable-background:new 0 0 474 150;" xml:space="preserve">
<style type="text/css">
	.st0{fill:#EFB810;}
	.st1{fill:#B0880C;}
	.st2{fill:#050400;}
</style>
<rect x="601" y="102" class="st0" width="34.5" height="34.5"/>
<rect x="601" y="173" class="st1" width="34.5" height="34.5"/>
<rect x="601" y="234.3" class="st2" width="34.5" height="34.5"/>
<g>
	<g>
		<path class="st2" d="M79.4,20.2l0.3-0.2l4.5,0.5l4.3,1.7l1,0.5c4.1,2.9,6.1,7,6.1,12.6c0.1,5.1-2.5,8.5-7.6,10.3
			c-7.5-0.5-10.2-4.8-8.1-12.9c1.5-0.9,3.2-1.4,5.2-1.3l-0.2-1.2c-2.2-1-4.5-0.7-7.1,0.7c-1.4,1.2-2.7,2.9-3.8,5.2l-1.6,5.6
			c-0.2,0.4-0.4,1-0.5,1.8c0,1.2-0.2,2.6-0.5,4.3L71.3,49v0.6L71,51.5c-0.1,0.4-0.1,0.8-0.2,1.3c-0.1,0.5-0.1,1.2-0.2,2l-0.2,1.6
			l-0.2,1.5l-0.2,1.2V60l-0.2,1.2l-0.2,5l-0.2,1l-0.2,10l-0.2,0.9l-0.4,12.2l-0.2,1.2l-0.3,2.7c-4.8-1.7-9.9-2.1-15.3-1.3
			c0.2-7.8-0.9-14.6-3.5-20.6c-4.1,3.9-7.5,11.8-10.2,23.8c-1.9,0.2-4.1,0.6-6.5,1.1c-2.4,0.5-5,1.1-7.9,2c1.7-4.5,1.9-12,0.5-22.7
			l-0.2-1.6l-0.2-1.5l-0.2-0.7c-0.1-0.4-0.1-0.7-0.1-1.1c0-0.4,0-0.8,0-1.3l-0.2-0.8c-0.1-0.8-0.2-1.5-0.3-2
			c-0.1-0.5-0.1-1.1-0.3-1.9l-0.2-1.2l-0.3-1.2c-0.1-0.8-0.1-1.5-0.3-2.1c-0.1-0.6-0.2-1.2-0.3-1.7l-0.2-1.3l-0.2-1.2l-0.5-1.9v-0.6
			l-1-4v-1.3h15.4L36,60.7l0.2,2.2l0.7,3.5l0.7,1.5c3.3-4.6,4.8-10.9,4.5-18.9l2.1,0.3l0.5,0.2l2.4,0.4c0.5,0.1,1,0.2,1.4,0.4
			c0.4,0.1,0.8,0.2,1.2,0.2l0.7,0.2l0.9,0.2l2.4,0.4l0.9,0.2l1.1,4.3l0.2,0.7l1,3.7c0.1,0.1,0.2,0.4,0.2,0.7l1,3.4l0.5,1.6
			c0.1-0.4,0.2-0.9,0.2-1.4c0-0.5,0-1.1,0-1.7l0.2-2.4l0.2-0.5v-2.4l0.2-0.8c0-0.4,0-1,0-1.9c0-0.8,0.1-1.9,0.1-3.2l0.2-0.6V49
			l0.6-4.4v-0.7l0.2-0.6l0.3-1.7l0.3-1.2l0.2-0.8l0.3-1.2l0.3-1.8l1.9-4.7l0.4-1.1l1.7-2.2c0.8-1.2,1.9-2.7,3.3-4.3l1-0.9l0.3-0.4
			C73.1,21.5,76,20.5,79.4,20.2z M24.1,41.9c0.6-1.1,1.5-1.8,2.5-2.3c0.8,0,1.7,0.1,2.9,0.4c1.2,0.1,2.2,0.3,2.9,0.5h0.4l2.4,0.4
			h0.7c0.3,0.1,0.7,0.1,1.1,0.1c0.4,0,0.8,0,1.3,0l11.1-0.5l1.2-0.2c0.8-0.1,1.6-0.2,2.2-0.2c0.7,0,1.2,0,1.7,0
			c3.1,2.6,2.8,4.8-0.9,6.6l-2.7,0.4l-1,0.2h-0.7l-0.6,0.1h-1.8c-0.4,0.1-0.9,0.2-1.4,0.2c-0.5,0-1.1,0-1.7,0l-0.3,0.2h-5.7
			c-0.5-0.1-0.9-0.2-1.4-0.2c-0.5,0-1,0-1.6,0c-1.2-0.2-2.2-0.3-2.9-0.3c-0.8-0.2-1.8-0.4-3.1-0.5l-0.3-0.2l-1.3-0.4h-0.5l-1.7-0.9
			C24.2,44.4,23.9,43.3,24.1,41.9z M39.6,19.4l0.6-0.2l12.7,0.2c0.4,0.1,0.8,0.1,1.3,0.2c0.5,0.1,0.9,0.2,1.4,0.4l2.2,0.7L58,21
			l-3.7,4.8l-1,1.2l-0.3,0.7c-0.4,0.4-0.8,1.1-1.3,2l-0.5,0.7l-0.9,1.8c-0.2,0.4-0.3,0.8-0.5,1.1c-0.2,0.3-0.3,0.6-0.5,0.9l-0.6,2.3
			c0,1.1,0.2,2.2,0.5,3.5l-1,0.2l-1.1,0.2L46,40.6h-1.1l-0.7,0.2h-5.9c-0.2-0.1-0.5-0.1-0.7-0.1c-0.3,0-0.6,0-0.9,0
			c-0.8-0.1-1.4-0.3-2.1-0.4c-0.6-0.1-1.2-0.3-1.8-0.4c0.6-7-0.7-13-4.1-18.2c1-0.3,2.1-0.6,3.2-0.8c0.7-0.1,1.4-0.3,2.2-0.5l1-0.2
			l1.2-0.2l1-0.2C38.1,19.6,38.9,19.6,39.6,19.4z"/>
		<path class="st2" d="M76.2,51.6l-0.3-1.2h19.3c-7.4,13.6-8,28.5-1.9,44.6l-17.5-3.1c1.5-5.3,2.2-10.3,2.1-14.9v-0.7
			c0.1-0.4,0.1-0.7,0.1-1.1c0-0.4,0-0.8,0-1.2v-7.7c-0.2-0.5-0.3-1.4-0.2-2.5l-0.2-2l-0.1-0.4l-1.2-8.6L76.2,52V51.6z"/>
		<path class="st2" d="M97.5,95.6c3.1-18,4.2-30.8,3.3-38.5c-0.4-3.9-0.7-6.9-0.9-8.8c-0.2-2-0.3-3-0.3-3.1h15.1
			c-0.2,0.8-0.4,1.7-0.4,2.7l-0.2,0.6l-0.3,2.3c-0.1,0.4-0.1,0.7-0.2,1.1c-0.1,0.4-0.1,0.8-0.2,1.2l-0.2,1.5
			c-3.8,17.3-4.3,27.5-1.2,30.5c3.1,3,8.3,0.3,15.5-8.1v4.7l-0.2,1.4v2.1l-0.2,0.6l-0.1,4.8c-0.1,0.4-0.1,0.8-0.1,1.2
			c0,0.4,0,1,0,1.6l-0.2,0.6v2.3l-0.2,1.2L97.3,98L97.5,95.6z"/>
		<path class="st2" d="M129.9,95.6c3.1-18,4.2-30.8,3.3-38.5c-0.4-3.9-0.7-6.9-0.9-8.8c-0.2-2-0.3-3-0.3-3.1h15.1
			c-0.2,0.8-0.4,1.7-0.4,2.7l-0.2,0.6l-0.3,2.3c-0.1,0.4-0.1,0.7-0.2,1.1c-0.1,0.4-0.1,0.8-0.2,1.2l-0.2,1.5
			c-3.8,17.3-4.3,27.5-1.2,30.5c3.1,3,8.3,0.3,15.5-8.1v4.7l-0.2,1.4v2.1l-0.2,0.6l-0.1,4.8c-0.1,0.4-0.1,0.8-0.1,1.2
			c0,0.4,0,1,0,1.6l-0.2,0.6v2.3l-0.2,1.2L129.7,98L129.9,95.6z"/>
		<path class="st2" d="M173.8,99.3c8.6-13.9,4.9-30.1-11.3-48.5h16.4l0.8,3.4l0.2,0.4l0.5,1.8l0.3,0.7l0.2,0.7l4.6,10.5l0.5,1
			l0.3,0.4l1.5-2.9c0.1-0.5,0.3-1,0.7-1.4l0.7-1.5c0.3-0.9,0.7-1.8,1.1-2.8l1-2.9l0.3-0.7L192,57l0.2-0.6c0.5-0.9,0.8-2,1-3.3l0.3-1
			l0.2-0.6l0.1-0.6h16.4c-11.2,9.6-16.7,21.5-16.5,35.7l0.6,3.3v0.4c0.1,0.1,0.2,0.3,0.2,0.6l0.7,2.3c0.5,0.8,0.8,1.6,0.9,2.2
			l0.8,2.2L173.8,99.3z"/>
		<path class="st2" d="M280.8,20.2l0.3-0.2l4.6,0.5l4.2,1.7l1,0.5c4,2.9,6,7,6,12.6c0.1,5.1-2.5,8.5-7.6,10.3
			c-7.5-0.5-10.2-4.8-8.1-12.9c1.5-0.9,3.2-1.4,5.2-1.3l-0.1-1.2c-2.2-1-4.6-0.7-7.2,0.7c-1.4,1.2-2.7,2.9-3.8,5.2l-1.6,5.6
			c-0.2,0.5-0.4,1.1-0.4,1.8c0,1.2-0.2,2.6-0.5,4.3l-0.2,1.2v0.6l-0.3,1.9c-0.1,0.4-0.1,0.8-0.2,1.3c-0.1,0.5-0.1,1.2-0.2,2
			l-0.1,1.6l-0.2,1.5l-0.2,1.2V60l-0.2,1.2l-0.2,5l-0.2,1l-0.2,10l-0.2,0.9l-0.5,12.2l-0.2,1.2l-0.2,2.7c-4.8-1.7-10-2.2-15.4-1.3
			c0.3-8-0.9-14.9-3.5-20.6c-4.1,3.9-7.5,11.8-10.1,23.8c-4,0.5-8.8,1.5-14.5,3c1.8-4.5,2-12,0.5-22.7l-0.2-1.6l-0.2-1.5l-0.2-0.7
			c-0.1-0.4-0.1-0.7-0.1-1.1c0-0.4,0-0.8,0-1.3l-0.2-0.8c-0.1-0.8-0.2-1.5-0.3-2c-0.1-0.5-0.1-1.1-0.3-1.9l-0.2-1.2l-0.3-1.2
			c-0.1-0.8-0.1-1.5-0.3-2.1c-0.1-0.6-0.2-1.2-0.3-1.7l-0.2-1.3l-0.2-1.2l-0.5-1.9v-0.6l-1-4v-1.3h15.3l-0.3,11.9l0.2,2.2l0.7,3.5
			l0.7,1.5c3.4-4.5,4.9-10.8,4.5-18.9l2,0.3l0.5,0.2l2.4,0.4c0.6,0.1,1.1,0.2,1.4,0.4c0.4,0.1,0.8,0.2,1.3,0.2l0.7,0.2l0.8,0.2
			l2.4,0.4l0.9,0.2l1.2,4.3l0.2,0.7l1,3.7c0.1,0.1,0.2,0.4,0.2,0.7l1,3.4l0.5,1.6c0.1-0.4,0.2-0.9,0.2-1.4c0-0.5,0-1.1,0-1.7
			l0.2-2.4l0.2-0.5v-2.4l0.2-0.8c0-0.4,0-1,0-1.9c0-0.8,0.1-1.9,0.1-3.2l0.2-0.6V49l0.7-4.4v-0.7l0.1-0.6l0.3-1.7l0.3-1.2l0.2-0.8
			l0.3-1.2l0.3-1.8l1.8-4.7l0.5-1.1l1.7-2.2c0.8-1.3,1.9-2.7,3.4-4.3l1-0.9L272,23C274.5,21.4,277.5,20.5,280.8,20.2z"/>
		<path class="st2" d="M276.7,74c-0.2-12.7,5.2-21,16-25c12.1-0.8,19.4,6.2,22,20.9c1.2,12.2-2.7,21.5-11.7,27.9l-4.1,1.5h-6.4
			l-0.5-0.2C281.5,95,276.4,86.6,276.7,74z M304.5,68.1c-0.3-6.7-2.4-10.5-6.3-11.7c-0.9,0.2-1.7,0.7-2.5,1.5
			c-4.3,7-4.3,14.6-0.2,22.8c0.6,0.8,1.4,1.3,2.4,1.7c1.3,0,2.4-0.5,3.4-1.6C303.6,77.2,304.6,73,304.5,68.1z"/>
		<path class="st2" d="M342.9,56.4c-0.1-0.9-0.2-1.7-0.3-2.5c-0.1-0.8-0.2-1.6-0.3-2.3h14.4c-5.4,16-5.8,33.3-1.2,51.9h-13.8
			c0-0.3-0.1-0.6-0.3-1c-5.3-4.7-9.3-11.9-12-21.5l0.2,6c0.1,1.2,0.1,2.2,0.3,3.1v2l0.2,1c0,0.4,0,0.8,0,1c0,0.3,0.1,0.5,0.1,0.8
			v1.3l0.2,1c0,0.9,0.1,1.9,0.3,2.9v1c0.2,0.8,0.3,1.8,0.3,3.1h-5.9l-1.2-0.2h-2.7l-1.7-0.3h-1.3l0.7-5.9v-0.5l0.3-3.5v-0.5l0.2-2.1
			v-0.8c0-0.8,0-1.7,0-2.7c0-1,0-2.1,0.1-3.3V72.8l-0.1-0.8v-5.4l-0.2-0.7v-3.7l-0.2-0.7v-4.2l-0.2-1.3v-2.1h12.7l-0.3,1.3l1,3.4
			l0.4,1.4l0.2,0.7l3.9,11.9l0.3,0.6l1.8,5l0.4,0.7l0.6,1.6c0.1,0.2,0.3,0.5,0.4,0.8c0.2,0.3,0.3,0.7,0.4,1.2l0.8,1.4l1.6,3l0.3,0.4
			c0-0.6,0-1.3,0.1-2.1c0.1-0.8,0.1-1.8,0.3-2.8l-0.2-17.3l-0.2-0.5v-1c0-0.6,0-1.3-0.1-2.1c-0.1-0.8-0.2-1.7-0.3-2.7v-1.3
			L342.9,56.4z"/>
		<path class="st2" d="M397.6,41.5l0.2-0.5l12.5,2.1l-4.7,7l-1,1.3l-0.2,0.4c-0.5,0.5-1,1.2-1.6,2l-1.2,1.2c-0.5,0.8-1,1.4-1.7,2
			l-0.4,0.7L395,62l-0.6,0.4c-0.3,0.4-0.6,0.7-1,1.1l-3.1,2.8c2.4,0.7,4.4,2,6,4.1l1.2,2.4c0.1,0.4,0.2,0.9,0.4,1.4
			c0.1,0.5,0.3,1.1,0.4,1.6c0.2,0.5,0.3,1.1,0.3,1.6l0.3,2l0.3,1.8l0.2,1.2l0.1,1.1l0.2,1.2l0.5,1.9l0.1,0.5l1,3l0.2,0.4l0.3,1.2
			l0.3,0.6l0.2,0.6l0.9,2c0.1,0.1,0.1,0.3,0.3,0.5c0.1,0.2,0.2,0.5,0.3,0.8c7.9,10.2,16.6,14.3,26.1,12.1c0.5-0.4,1-0.7,1.6-1.2
			c-2.9-1.8-4-4.4-3.1-7.8c2.4-3.3,5.7-4.5,10-3.5c4.4,2.3,6.5,6.2,6.1,11.5l-1.1,2.6l-0.5,1v0.2c-1.3,1.7-3,3.1-5.1,4.3l-0.3,0.4
			c-26.6,6.4-41.8-0.9-45.8-21.7c-0.3-0.8-0.6-2-0.9-3.6l-0.2-0.4l-0.3-1.8l-0.5-1.4v-0.4l-2.4-5.3l-1.1-1.8c-4.3-4.7-5.9-5.4-5-2
			c0,0.8,0.1,1.4,0.3,2l0.1,1l0.3,1.2l0.2,1.2l0.2,0.6l0.3,1.7l0.2,0.7l0.4,1.8l0.3,1.1l0.2,0.6l0.7,2.5l0.3,0.7l2.4,6.4l-20,0.4
			l1.4-10c0.1-0.9,0.1-1.7,0.3-2.5c0.1-0.1,0.2-0.3,0.2-0.7c0-0.4,0-0.8,0-1.4l0.2-0.4v-1.1l0.1-1.1c0.1-0.9,0.1-2,0.3-3.2l0.3-2.3
			c-0.1-0.4-0.1-0.8,0-1.2c0-0.4,0.1-0.9,0.1-1.4c-0.3-0.1-0.6-0.2-1-0.3c-0.4-0.1-0.8-0.1-1.3-0.2c-7.7-1-11.4-4.7-11.2-11.1
			c1.4-7.4,4.7-10.1,9.9-8.1c1.3,1.5,1.8,3.3,1.4,5.5c-0.2,2-1.5,3.4-3.7,4.1c1.6,1.1,3.5,1.8,5.7,1.9c0.2-0.9,0.2-1.7,0.2-2.5
			l-0.1-3.8c-0.1-0.6-0.2-1.1-0.2-1.6l-0.1-1.8l-0.2-0.5v-1.6c-0.1-0.3-0.1-0.6-0.1-0.9c0-0.3,0-0.7,0-1.1c-0.1-0.5-0.1-1-0.2-1.4
			c-0.1-0.4-0.1-0.8-0.2-1.1L369,48l-0.3-1.3l-0.2-1.2l10.2,1.1l1.8-0.3h2.7l-2.2,10.3l-0.1,0.9l-0.2,1.3c-0.1,0.6-0.1,1.1-0.1,1.6
			c-0.2,0.7-0.3,1.5-0.2,2.4l-0.1,0.4l0.1,0.4c0.5-0.5,1.2-1.1,1.9-1.6c0.1-0.1,0.3-0.3,0.5-0.4c0.2-0.2,0.5-0.4,0.7-0.7l0.3-0.2
			l1.7-1.7l0.5-0.4l3.1-3l0.5-0.7l0.9-1l0.8-1l1.7-2.1c0.6-0.7,1-1.2,1.2-1.8l2.2-3.7l0.4-1.5l0.2-0.3l0.3-1.2L397.6,41.5z"/>
		<path class="st2" d="M421.2,43.1l2.3,0.1l19.5,0.2v3.1l-0.2,1.2v8.2c0.1,0.4,0.1,0.7,0.1,1.2c0,0.4,0,0.9,0,1.3l0.2,3.9
			c0.1,0.1,0.2,0.4,0.2,0.7l0.2,2.9c0.1,1.4,0.2,2.4,0.5,3.2l0.2,2.2c0.2,0.8,0.4,1.7,0.5,2.8l0.3,1.1c0,0.7,0.1,1.3,0.3,1.9
			l1.8,6.5c0.2,0.4,0.4,1,0.5,1.7l2.5,5.3l0.7,1.1l0.5,0.6l0.3,0.4l0.7,1.1l0.8,1.1H442l-0.9-2.8l-0.3-0.7l-1-3.1l-0.3-1.2l-0.2-0.7
			l-0.6-1.9l-0.5-1.6l-0.2-0.7l-2.1-5.9h-5.1c-3.7,4.9-4.3,10.3-1.9,16.1h-18.4C421.3,69.2,424.9,52.8,421.2,43.1z M431.7,57.8
			l-0.3-0.7l-1.4,4.5c-0.1,0.4-0.3,0.9-0.4,1.5c-0.2,0.6-0.4,1.2-0.8,2h4.8l0.5-0.2c-0.6-1-1-2.3-1.4-4c-0.2-0.4-0.3-0.8-0.3-1.1
			L431.7,57.8z"/>
	</g>
	<g>
		<path class="st1" d="M115.4,130.9c-0.9-0.5-1.6-1.2-2.1-2.1c-0.5-0.9-0.8-1.9-0.8-3s0.3-2.1,0.8-3c0.5-0.9,1.2-1.6,2.1-2.1
			s1.9-0.8,3.1-0.8c0.9,0,1.7,0.1,2.4,0.4s1.4,0.7,1.9,1.3l-1,1c-0.8-0.9-1.9-1.3-3.2-1.3c-0.8,0-1.6,0.2-2.3,0.6
			c-0.7,0.4-1.2,0.9-1.6,1.6c-0.4,0.7-0.6,1.4-0.6,2.2c0,0.8,0.2,1.6,0.6,2.2s0.9,1.2,1.6,1.6c0.7,0.4,1.4,0.6,2.3,0.6
			c1.3,0,2.3-0.5,3.2-1.4l1,1c-0.5,0.6-1.1,1-1.9,1.3c-0.7,0.3-1.5,0.5-2.4,0.5C117.3,131.7,116.3,131.4,115.4,130.9z"/>
		<path class="st1" d="M134.8,120.2v11.3h-1.6v-5h-6.5v5h-1.6v-11.3h1.6v4.9h6.5v-4.9H134.8z"/>
		<path class="st1" d="M140.2,130.9c-0.9-0.5-1.6-1.2-2.2-2.1s-0.8-1.9-0.8-3c0-1.1,0.3-2.1,0.8-3s1.2-1.6,2.2-2.1s1.9-0.8,3.1-0.8
			c1.1,0,2.2,0.3,3.1,0.8c0.9,0.5,1.6,1.2,2.1,2.1c0.5,0.9,0.8,1.9,0.8,3s-0.3,2.1-0.8,3c-0.5,0.9-1.2,1.6-2.1,2.1
			c-0.9,0.5-1.9,0.8-3.1,0.8C142.1,131.7,141.1,131.4,140.2,130.9z M145.5,129.7c0.7-0.4,1.2-0.9,1.6-1.6s0.6-1.4,0.6-2.2
			c0-0.8-0.2-1.6-0.6-2.2c-0.4-0.7-0.9-1.2-1.6-1.6c-0.7-0.4-1.4-0.6-2.2-0.6c-0.8,0-1.6,0.2-2.3,0.6c-0.7,0.4-1.2,0.9-1.6,1.6
			c-0.4,0.7-0.6,1.4-0.6,2.2c0,0.8,0.2,1.6,0.6,2.2s0.9,1.2,1.6,1.6c0.7,0.4,1.4,0.6,2.3,0.6C144.1,130.2,144.8,130,145.5,129.7z"/>
		<path class="st1" d="M153.7,130.9c-0.9-0.5-1.6-1.2-2.1-2.1c-0.5-0.9-0.8-1.9-0.8-3s0.3-2.1,0.8-3c0.5-0.9,1.2-1.6,2.1-2.1
			s1.9-0.8,3.1-0.8c0.9,0,1.7,0.1,2.4,0.4s1.4,0.7,1.9,1.3l-1,1c-0.8-0.9-1.9-1.3-3.2-1.3c-0.8,0-1.6,0.2-2.3,0.6
			c-0.7,0.4-1.2,0.9-1.6,1.6c-0.4,0.7-0.6,1.4-0.6,2.2c0,0.8,0.2,1.6,0.6,2.2s0.9,1.2,1.6,1.6c0.7,0.4,1.4,0.6,2.3,0.6
			c1.3,0,2.3-0.5,3.2-1.4l1,1c-0.5,0.6-1.1,1-1.9,1.3c-0.7,0.3-1.5,0.5-2.4,0.5C155.6,131.7,154.6,131.4,153.7,130.9z"/>
		<path class="st1" d="M165.1,130.9c-0.9-0.5-1.6-1.2-2.2-2.1s-0.8-1.9-0.8-3c0-1.1,0.3-2.1,0.8-3s1.2-1.6,2.2-2.1s1.9-0.8,3.1-0.8
			c1.1,0,2.2,0.3,3.1,0.8c0.9,0.5,1.6,1.2,2.1,2.1c0.5,0.9,0.8,1.9,0.8,3s-0.3,2.1-0.8,3c-0.5,0.9-1.2,1.6-2.1,2.1
			c-0.9,0.5-1.9,0.8-3.1,0.8C167.1,131.7,166.1,131.4,165.1,130.9z M170.5,129.7c0.7-0.4,1.2-0.9,1.6-1.6s0.6-1.4,0.6-2.2
			c0-0.8-0.2-1.6-0.6-2.2c-0.4-0.7-0.9-1.2-1.6-1.6c-0.7-0.4-1.4-0.6-2.2-0.6c-0.8,0-1.6,0.2-2.3,0.6c-0.7,0.4-1.2,0.9-1.6,1.6
			c-0.4,0.7-0.6,1.4-0.6,2.2c0,0.8,0.2,1.6,0.6,2.2s0.9,1.2,1.6,1.6c0.7,0.4,1.4,0.6,2.3,0.6C169.1,130.2,169.8,130,170.5,129.7z"/>
		<path class="st1" d="M176.7,120.2h1.6v9.9h6.1v1.4h-7.7V120.2z"/>
		<path class="st1" d="M193.5,128.7h-6l-1.2,2.8h-1.7l5.1-11.3h1.6l5.1,11.3h-1.7L193.5,128.7z M192.9,127.4l-2.4-5.5l-2.4,5.5
			H192.9z"/>
		<path class="st1" d="M199.8,121.7h-3.9v-1.4h9.3v1.4h-3.9v9.9h-1.6V121.7z"/>
		<path class="st1" d="M215.2,130.1v1.4H207v-11.3h8v1.4h-6.4v3.5h5.7v1.4h-5.7v3.6H215.2z"/>
		<path class="st1" d="M218.7,131.3c-0.8-0.3-1.4-0.6-1.9-1l0.6-1.3c0.4,0.4,1,0.7,1.7,0.9c0.7,0.2,1.4,0.4,2.1,0.4
			c0.9,0,1.6-0.2,2.1-0.5c0.5-0.3,0.7-0.7,0.7-1.3c0-0.4-0.1-0.7-0.4-0.9c-0.3-0.2-0.6-0.4-0.9-0.6c-0.4-0.1-0.9-0.3-1.6-0.4
			c-0.8-0.2-1.5-0.4-2.1-0.6s-1-0.5-1.3-0.9s-0.6-1-0.6-1.7c0-0.6,0.2-1.1,0.5-1.6c0.3-0.5,0.8-0.9,1.4-1.2c0.6-0.3,1.4-0.4,2.4-0.4
			c0.7,0,1.3,0.1,2,0.3c0.6,0.2,1.2,0.4,1.7,0.7l-0.5,1.3c-0.5-0.3-1-0.5-1.5-0.7s-1.1-0.2-1.6-0.2c-0.9,0-1.6,0.2-2.1,0.5
			c-0.5,0.3-0.7,0.8-0.7,1.3c0,0.4,0.1,0.7,0.4,0.9s0.6,0.4,1,0.6s0.9,0.3,1.6,0.4c0.8,0.2,1.5,0.4,2,0.6c0.5,0.2,1,0.5,1.3,0.9
			c0.4,0.4,0.6,1,0.6,1.7c0,0.6-0.2,1.1-0.5,1.6s-0.8,0.9-1.5,1.2c-0.7,0.3-1.5,0.4-2.4,0.4C220.3,131.7,219.4,131.5,218.7,131.3z"
			/>
		<path class="st1" d="M241.3,126.7c0.4,0.5,0.6,1.1,0.6,1.8c0,1-0.4,1.7-1.1,2.3c-0.7,0.5-1.8,0.8-3.2,0.8h-5.4v-11.3h5.1
			c1.3,0,2.3,0.3,3,0.8c0.7,0.5,1.1,1.2,1.1,2.1c0,0.6-0.1,1.1-0.4,1.5c-0.3,0.4-0.6,0.8-1.1,1C240.4,125.9,240.9,126.2,241.3,126.7
			z M233.8,121.6v3.6h3.3c0.8,0,1.5-0.2,1.9-0.5c0.4-0.3,0.7-0.8,0.7-1.3c0-0.6-0.2-1-0.7-1.3c-0.4-0.3-1.1-0.5-1.9-0.5H233.8z
			 M239.6,129.8c0.5-0.3,0.7-0.8,0.7-1.4c0-1.3-0.9-1.9-2.8-1.9h-3.7v3.8h3.7C238.4,130.2,239.1,130.1,239.6,129.8z"/>
		<path class="st1" d="M245.6,130.4c-0.8-0.9-1.3-2.1-1.3-3.7v-6.4h1.6v6.4c0,2.4,1.1,3.6,3.2,3.6c1,0,1.8-0.3,2.4-0.9
			c0.5-0.6,0.8-1.5,0.8-2.7v-6.4h1.6v6.4c0,1.6-0.4,2.9-1.3,3.7c-0.8,0.9-2,1.3-3.5,1.3S246.4,131.2,245.6,130.4z"/>
		<path class="st1" d="M267.6,131.5l0-8.2l-4.1,6.9h-0.7l-4.1-6.8v8.2h-1.5v-11.3h1.3l4.7,7.9l4.6-7.9h1.3l0,11.3H267.6z"/>
		<path class="st1" d="M279.7,128.7h-6l-1.2,2.8h-1.7l5.1-11.3h1.6l5.1,11.3H281L279.7,128.7z M279.2,127.4l-2.4-5.5l-2.4,5.5H279.2
			z"/>
		<path class="st1" d="M294.1,120.2v11.3h-1.3l-6.8-8.4v8.4h-1.6v-11.3h1.3l6.8,8.4v-8.4H294.1z"/>
		<path class="st1" d="M305.3,125.8h1.5v4.4c-0.6,0.5-1.2,0.8-2,1.1c-0.7,0.2-1.5,0.4-2.3,0.4c-1.1,0-2.2-0.3-3.1-0.8
			c-0.9-0.5-1.6-1.2-2.2-2.1c-0.5-0.9-0.8-1.9-0.8-3s0.3-2.1,0.8-3c0.5-0.9,1.2-1.6,2.2-2.1c0.9-0.5,2-0.7,3.1-0.7
			c0.9,0,1.7,0.1,2.5,0.4s1.4,0.7,1.9,1.3l-1,1c-0.9-0.9-2-1.3-3.3-1.3c-0.9,0-1.6,0.2-2.3,0.6s-1.2,0.9-1.6,1.5s-0.6,1.4-0.6,2.2
			c0,0.8,0.2,1.6,0.6,2.2s0.9,1.2,1.6,1.6c0.7,0.4,1.4,0.6,2.3,0.6c1,0,1.9-0.2,2.6-0.7V125.8z"/>
		<path class="st1" d="M311.1,130.4c-0.8-0.9-1.3-2.1-1.3-3.7v-6.4h1.6v6.4c0,2.4,1.1,3.6,3.2,3.6c1,0,1.8-0.3,2.4-0.9
			c0.5-0.6,0.8-1.5,0.8-2.7v-6.4h1.6v6.4c0,1.6-0.4,2.9-1.3,3.7c-0.8,0.9-2,1.3-3.5,1.3C313.1,131.7,311.9,131.2,311.1,130.4z"/>
		<path class="st1" d="M330.9,130.1v1.4h-8.2v-11.3h8v1.4h-6.4v3.5h5.7v1.4h-5.7v3.6H330.9z"/>
		<path class="st1" d="M334.3,131.3c-0.8-0.3-1.4-0.6-1.9-1l0.6-1.3c0.4,0.4,1,0.7,1.7,0.9c0.7,0.2,1.4,0.4,2.1,0.4
			c0.9,0,1.6-0.2,2.1-0.5c0.5-0.3,0.7-0.7,0.7-1.3c0-0.4-0.1-0.7-0.4-0.9c-0.3-0.2-0.6-0.4-0.9-0.6c-0.4-0.1-0.9-0.3-1.6-0.4
			c-0.8-0.2-1.5-0.4-2.1-0.6c-0.5-0.2-1-0.5-1.3-0.9s-0.6-1-0.6-1.7c0-0.6,0.2-1.1,0.5-1.6c0.3-0.5,0.8-0.9,1.4-1.2
			c0.6-0.3,1.4-0.4,2.4-0.4c0.7,0,1.3,0.1,2,0.3c0.6,0.2,1.2,0.4,1.7,0.7l-0.5,1.3c-0.5-0.3-1-0.5-1.5-0.7c-0.5-0.2-1.1-0.2-1.6-0.2
			c-0.9,0-1.6,0.2-2.1,0.5c-0.5,0.3-0.7,0.8-0.7,1.3c0,0.4,0.1,0.7,0.4,0.9s0.6,0.4,1,0.6c0.4,0.1,0.9,0.3,1.6,0.4
			c0.8,0.2,1.5,0.4,2,0.6c0.5,0.2,1,0.5,1.3,0.9c0.4,0.4,0.6,1,0.6,1.7c0,0.6-0.2,1.1-0.5,1.6s-0.8,0.9-1.5,1.2
			c-0.7,0.3-1.5,0.4-2.4,0.4C335.9,131.7,335.1,131.5,334.3,131.3z"/>
		<path class="st1" d="M351.7,130.1v1.4h-8.2v-11.3h8v1.4h-6.4v3.5h5.7v1.4h-5.7v3.6H351.7z"/>
		<path class="st1" d="M355.1,131.3c-0.8-0.3-1.4-0.6-1.9-1l0.6-1.3c0.4,0.4,1,0.7,1.7,0.9c0.7,0.2,1.4,0.4,2.1,0.4
			c0.9,0,1.6-0.2,2.1-0.5c0.5-0.3,0.7-0.7,0.7-1.3c0-0.4-0.1-0.7-0.4-0.9c-0.3-0.2-0.6-0.4-0.9-0.6c-0.4-0.1-0.9-0.3-1.6-0.4
			c-0.8-0.2-1.5-0.4-2.1-0.6c-0.5-0.2-1-0.5-1.3-0.9s-0.6-1-0.6-1.7c0-0.6,0.2-1.1,0.5-1.6c0.3-0.5,0.8-0.9,1.4-1.2
			c0.6-0.3,1.4-0.4,2.4-0.4c0.7,0,1.3,0.1,2,0.3c0.6,0.2,1.2,0.4,1.7,0.7l-0.5,1.3c-0.5-0.3-1-0.5-1.5-0.7c-0.5-0.2-1.1-0.2-1.6-0.2
			c-0.9,0-1.6,0.2-2.1,0.5c-0.5,0.3-0.7,0.8-0.7,1.3c0,0.4,0.1,0.7,0.4,0.9s0.6,0.4,1,0.6c0.4,0.1,0.9,0.3,1.6,0.4
			c0.8,0.2,1.5,0.4,2,0.6c0.5,0.2,1,0.5,1.3,0.9c0.4,0.4,0.6,1,0.6,1.7c0,0.6-0.2,1.1-0.5,1.6s-0.8,0.9-1.5,1.2
			c-0.7,0.3-1.5,0.4-2.4,0.4C356.7,131.7,355.9,131.5,355.1,131.3z"/>
	</g>
	<g>
		<g>
			<path class="st1" d="M103.4,127.4H56c-0.6,0-1-0.4-1-1s0.4-1,1-1h47.5c0.6,0,1,0.4,1,1S104,127.4,103.4,127.4z"/>
		</g>
		<g>
			<path class="st1" d="M417.5,127.4H370c-0.6,0-1-0.4-1-1s0.4-1,1-1h47.5c0.6,0,1,0.4,1,1S418,127.4,417.5,127.4z"/>
		</g>
	</g>
</g>
</svg>
